svg
<svg xmlns="http://www.w3.org/2000/svg" viewBox="0 0 64 64" fill="none" stroke="currentColor" strokeWidth="2">
    <circle cx="32" cy="18" r="10" fill="hsl(var(--primary-foreground))" stroke="hsl(var(--primary))"/>
    <circle cx="28" cy="16" r="1.5" fill="hsl(var(--primary))" />
    <circle cx="36" cy="16" r="1.5" fill="hsl(var(--primary))" />
    <path d="M29 21 Q 32 23 35 21" stroke="hsl(var(--primary))" strokeWidth="1.5" fill="none" />
    <path d="M22 18 Q 32 10 42 18" stroke="hsl(var(--primary))" fill="hsl(var(--primary-foreground))" strokeWidth="1.5"/>
    <path d="M22 18 C 20 22, 20 28, 22 30" fill="hsl(var(--primary-foreground))" stroke="hsl(var(--primary))" />
    <path d="M42 18 C 44 22, 44 28, 42 30" fill="hsl(var(--primary-foreground))" stroke="hsl(var(--primary))" />
    <rect x="24" y="8" width="16" height="4" rx="2" fill="hsl(var(--primary-foreground))" stroke="hsl(var(--primary))" />
    <path d="M26 28 L 22 48 Q 32 54 42 48 L 38 28 Z" fill="hsl(var(--primary))" stroke="hsl(var(--primary))" />
    <path d="M27 32 L 24 46 Q 32 50 40 46 L 37 32 Z" fill="hsl(var(--primary-foreground))" stroke="hsl(var(--border))" />
    <rect x="28" y="30" width="8" height="4" fill="hsl(var(--primary-foreground))" stroke="hsl(var(--border))" />
    <ellipse cx="23" cy="36" rx="3" ry="5" fill="hsl(var(--primary))" stroke="hsl(var(--primary))" transform="rotate(-30 23 36)" />
    <ellipse cx="41" cy="36" rx="3" ry="5" fill="hsl(var(--primary))" stroke="hsl(var(--primary))" transform="rotate(30 41 36)" />
    <ellipse cx="28" cy="52" rx="3" ry="6" fill="hsl(var(--primary))" stroke="hsl(var(--primary))" />
    <ellipse cx="36" cy="52" rx="3" ry="6" fill="hsl(var(--primary))" stroke="hsl(var(--primary))" />
  </svg>